<svg xmlns="http://www.w3.org/2000/svg" xml:space="preserve" viewBox="0 0 297 297">
  <path d="m268.3 249.8-33-55.1a10 10 0 0 0 5.2-14.5l-33-55a10 10 0 0 0 4.6-15.5L171 49a29.8 29.8 0 1 0-45 0l-41.4 61a10 10 0 0 0 5 15l-33.1 55.1a10 10 0 0 0 5.2 14.5l-33 55.1a10 10 0 0 0 8.5 15h85.5V287a10 10 0 0 0 10 9.9h31.6a10 10 0 0 0 10-10V265h85.5a10 10 0 0 0 8.5-15zm-119.8-230a9.9 9.9 0 1 1 0 19.8 9.9 9.9 0 0 1 0-19.7zM143.3 59a29.8 29.8 0 0 0 10.4 0l31.7 46.8h-73.8L143.3 59zm-31 66.7h72.3l29.8 49.7H82.6l29.8-49.7zm42 151.4h-11.7V265h11.8v12zM54.8 245l29.8-49.7h128l29.8 49.7H54.7z"/>
</svg>
