<svg xmlns="http://www.w3.org/2000/svg" xml:space="preserve" fill-rule="evenodd" stroke-linejoin="round" stroke-miterlimit="2" clip-rule="evenodd" viewBox="0 0 32 32">
  <path fill-rule="nonzero" d="M14.34.7c-.05-.44-.28-.7-.72-.7-.43 0-.72.27-.72.7v6.44c0 .45-.3.74-.75.74h-.04c-.45 0-.75-.29-.75-.74V.7c0-.43-.28-.7-.72-.7-.43 0-.71.27-.71.7v6.44c0 .45-.3.74-.76.74h-.03c-.46 0-.76-.29-.76-.74V.7c0-.43-.28-.7-.71-.7-.44 0-.67.26-.72.7l-.69 7.7c-.18 2.09.69 3.8 2.71 4.26.24.05.43.2.4.5l-1 16.66c-.09 1.42.77 2.18 2.27 2.18 1.51 0 2.36-.76 2.28-2.18L11.9 13.16c-.02-.3.17-.45.4-.5 2.03-.47 2.9-2.17 2.71-4.26L14.33.7Zm10.1-.7.01 31.06s-.01.29-.4.63c-.39.35-.67.32-1.42.3-.75-.03-.78-.14-1.02-.37-.25-.23-.35-.5-.22-1.23.14-.75 1.21-10.08 1.21-10.08s.03-.13-.01-.27l.05-.43c-.82 0-2.7-.07-3.4-.05-.8.01-1.06-.25-1.1-.78-.02-.53-.06-5.22.61-9.64.67-4.42 2.28-6.66 3.4-7.92C23.26-.04 24.44 0 24.44 0"/>
</svg>
