<svg xmlns="http://www.w3.org/2000/svg" xml:space="preserve" fill-rule="evenodd" stroke-linejoin="round" stroke-miterlimit="2" clip-rule="evenodd" viewBox="0 0 300 300">
  <path fill="#657c46" fill-rule="nonzero" d="M150 2.47C68.52 2.47 2.47 68.52 2.47 150S68.52 297.53 150 297.53 297.53 231.48 297.53 150 231.48 2.47 150 2.47m0 76.97a70.1 70.1 0 0 1 49.9 20.67A70.1 70.1 0 0 1 220.55 150a70.1 70.1 0 0 1-20.67 49.9A70.1 70.1 0 0 1 150 220.55a70.1 70.1 0 0 1-49.9-20.67A70.1 70.1 0 0 1 79.45 150a70.1 70.1 0 0 1 20.67-49.9A70.1 70.1 0 0 1 150 79.45"/>
  <path fill-rule="nonzero" d="M150 4.1C69.56 4.1 4.1 69.57 4.1 150c0 80.44 65.46 145.9 145.9 145.9 80.44 0 145.9-65.46 145.9-145.9C295.9 69.56 230.43 4.1 150 4.1m0 295.9a149.5 149.5 0 0 1-106.07-43.93A149.5 149.5 0 0 1 0 150 149.5 149.5 0 0 1 43.93 43.93 149.52 149.52 0 0 1 150 0a149.52 149.52 0 0 1 106.07 43.93A149.5 149.5 0 0 1 300 150a149.5 149.5 0 0 1-43.93 106.07A149.5 149.5 0 0 1 150 300"/>
  <path fill="#fff" fill-rule="nonzero" d="M63.22 82.64a6 6 0 0 0 1.22-2.58c.14-.83.1-1.6-.11-2.29a6.11 6.11 0 0 0-.93-1.85c-.4-.54-.78-.95-1.16-1.24-.3-.22-.73-.48-1.3-.76a6.08 6.08 0 0 0-1.97-.57 4.53 4.53 0 0 0-2.32.38 6.14 6.14 0 0 0-2.39 2.05l-3.2 4.2 9 6.83 3.16-4.17ZM47.8 72.53a17.85 17.85 0 0 1 5.96-5.3A11.17 11.17 0 0 1 60.2 66c2.18.24 4.29 1.15 6.34 2.7 1.21.92 2.3 2.03 3.25 3.33.95 1.3 1.62 2.72 2.02 4.27.39 1.56.38 3.23-.02 5.03a14.9 14.9 0 0 1-2.82 5.6l-3.2 4.22 9.43 7.15-4.45 5.87-29.8-22.6 6.86-9.03Zm39.98-6.5 9.36-6.2 5.58 3.73-13.42 8.9-1.52-6.43Zm-2.15 17.64-7.42-41.72.34-.22L114.1 64.8l-7.11 4.72L82.9 52.69l2.43-6 6.37 32.96-6.06 4.02Z"/>
  <path fill="#fff" d="M127.93 61.78 117.4 25.89l-7.07 2.08 10.53 35.88 7.07-2.07Z"/>
  <path fill="#fff" fill-rule="nonzero" d="M168.6 55.9a7.7 7.7 0 0 1-2.12 1.39c-.96.46-2.07.88-3.31 1.25-1.25.37-2.52.66-3.82.88-1.3.21-2.51.3-3.66.27a23.72 23.72 0 0 1-8.2-1.59 18.33 18.33 0 0 1-6.13-3.94 16.22 16.22 0 0 1-3.8-5.83 18.62 18.62 0 0 1-1.16-7.25c.1-3.42.7-6.37 1.81-8.87a17.09 17.09 0 0 1 10.65-9.73 21.88 21.88 0 0 1 7.33-1c2.4.07 4.6.4 6.58.98 1.98.58 3.66 1.28 5.02 2.1l-2.58 6.79c-.6-.36-1.4-.72-2.41-1.09-1-.37-2.03-.68-3.08-.93a13.88 13.88 0 0 0-2.78-.4 16.8 16.8 0 0 0-5.4.6 10 10 0 0 0-4 2.17 9.63 9.63 0 0 0-2.54 3.7 15.5 15.5 0 0 0-.97 5.23c-.05 1.76.2 3.36.78 4.78a10.12 10.12 0 0 0 2.46 3.65 11.12 11.12 0 0 0 3.84 2.35 17.78 17.78 0 0 0 7.88.77 7.06 7.06 0 0 0 2.26-.67l.13-4.52-6.45-.2.21-7.1 13.92.4-.46 15.8Zm23.96-27.5 23.17 10.66-2.97 6.46-16.48-7.58-3.33 7.25 14.59 6.7-2.98 6.47-14.59-6.71-3.37 7.34 17.12 7.88-2.97 6.46-23.82-10.96 15.63-33.97Zm30.87 25.76c1-.05 2.1-.42 3.29-1.12a6.76 6.76 0 0 0 2.62-2.64l4.43 3.17a6.2 6.2 0 0 1-2.17 2.3c-1 .66-2.07 1.15-3.18 1.46a7.1 7.1 0 0 1-3.06.25l-1.93-3.42ZM251 85.88c-.25-1.6-.61-3.14-1.1-4.62a12.72 12.72 0 0 0-1.9-3.76 6.43 6.43 0 0 0-3.04-2.41c-1.07-.34-2.11-.12-3.14.66a3.26 3.26 0 0 0-1.25 2.26c-.13.97-.08 2.06.15 3.26.24 1.2.54 2.42.9 3.63.34 1.1.6 2.25.8 3.44.2 1.19.23 2.37.08 3.55a9.14 9.14 0 0 1-1.24 3.5 11.98 11.98 0 0 1-3.16 3.35 10.04 10.04 0 0 1-5.1 2.02c-1.88.2-3.8-.15-5.74-1.05a14.9 14.9 0 0 1-5.44-4.68 22.68 22.68 0 0 1-4.55-12.62l6.54-.89a17.7 17.7 0 0 0 1.36 6.5 9.78 9.78 0 0 0 3.35 4.45c.74.55 1.54.89 2.38.99.85.1 1.7-.17 2.56-.83a3.1 3.1 0 0 0 1.17-1.82c.2-.76.24-1.62.14-2.59-.1-.97-.3-1.95-.6-2.96a50.31 50.31 0 0 1-.93-3.76 18.2 18.2 0 0 1-.4-4c.02-1.35.32-2.67.9-3.94a9.53 9.53 0 0 1 3.03-3.54 10.67 10.67 0 0 1 5.36-2.26c1.85-.2 3.68.13 5.49.97 1.8.83 3.45 2.14 4.92 3.91 1.83 2.4 3.03 4.57 3.6 6.5a25.5 25.5 0 0 1 1.03 5.56L251 85.88ZM82.59 237.83c.87.7 1.73 1.11 2.55 1.27.83.15 1.6.13 2.3-.07a6.56 6.56 0 0 0 3.12-2.04c.23-.3.49-.72.78-1.29.3-.56.5-1.21.6-1.95.1-.74 0-1.51-.33-2.33-.33-.82-1-1.63-2-2.42l-4.16-3.27-6.98 8.86 4.12 3.24Zm10.38-15.24a17.86 17.86 0 0 1 5.18 6.06 11.16 11.16 0 0 1 1.13 6.45 12.83 12.83 0 0 1-2.81 6.29 16.09 16.09 0 0 1-3.38 3.19 12.26 12.26 0 0 1-4.31 1.94c-1.56.36-3.24.33-5.03-.1a14.88 14.88 0 0 1-5.55-2.93l-4.16-3.27-7.32 9.3-5.79-4.55 23.13-29.39 8.9 7.01Zm16.15 11.01 6.96 2.4-9.85 28.63 16.63 5.72-2.32 6.72-23.59-8.11 12.17-35.37Zm37.54 32.67 11.23-.2 2.7 6.15-16.1.3 2.17-6.25ZM135.38 280l16.14-39.17.41-.01 17.59 38.55-8.54.16-11.27-27.13 5.26-3.76-12.33 31.23-7.26.13Zm32.18-38.47 23.88-8.04 2.27 6.74-8.62 2.9 9.67 28.7-6.98 2.35-9.67-28.7-8.28 2.8-2.27-6.75Zm29-10.89 20.23-15.53 4.33 5.64-14.38 11.05 4.85 6.33 12.74-9.78 4.33 5.64-12.73 9.78 4.92 6.4 14.95-11.47 4.33 5.64-20.8 15.96-22.77-29.66ZM47.8 110.16c-.16-1.45-.91-2.3-2.32-2.3-1.4 0-2.31.9-2.31 2.3v21.37c0 1.48-.96 2.44-2.44 2.44h-.11c-1.49 0-2.44-.96-2.44-2.44v-21.36c0-1.4-.91-2.32-2.32-2.32-1.4 0-2.3.91-2.3 2.32v21.36c0 1.48-.97 2.44-2.45 2.44H31c-1.48 0-2.44-.96-2.44-2.44v-21.37c0-1.4-.9-2.3-2.31-2.3-1.4 0-2.16.85-2.32 2.3l-2.21 25.52c-.6 6.94 2.2 12.58 8.75 14.13.76.18 1.37.66 1.31 1.68l-3.26 55.21c-.28 4.7 2.47 7.23 7.34 7.23 4.88 0 7.63-2.52 7.35-7.23l-3.26-55.2c-.06-1.03.55-1.5 1.32-1.69 6.54-1.55 9.34-7.19 8.74-14.13l-2.22-25.52Zm227.63-5.06.04 108.19s-.03 1-1.29 2.19c-1.26 1.2-2.16 1.12-4.59 1.03-2.43-.1-2.5-.48-3.3-1.28-.79-.8-1.14-1.72-.7-4.3.46-2.59 3.9-35.1 3.9-35.1s.1-.43-.03-.94l.15-1.48c-2.64-.03-8.7-.25-10.96-.2-2.58.07-3.45-.85-3.54-2.7-.1-1.84-.21-18.18 1.95-33.57 2.17-15.4 7.36-23.18 10.97-27.57 3.61-4.38 7.4-4.26 7.4-4.26"/>
  <path fill-rule="nonzero" d="M150 81.69A68.39 68.39 0 0 0 81.69 150 68.39 68.39 0 0 0 150 218.31 68.39 68.39 0 0 0 218.31 150 68.39 68.39 0 0 0 150 81.69m0 140.73c-39.93 0-72.42-32.49-72.42-72.42S110.07 77.58 150 77.58s72.42 32.49 72.42 72.42-32.49 72.42-72.42 72.42"/>
  <path fill="#fbf9ec" fill-rule="nonzero" d="M172.35 231.57c-11.36.5-18.4-4.72-24.62-13.92-1.47-2.2-2.24-4.32-4.2-6.03-6.71-5.85-15.5-4.65-23.59-1.55-4.09 2-8.2 4.06-12.3 5.94a14.5 14.5 0 0 1-14.66-1.31c-7.62-5.5-16.63-12.88-16.36-23.37.09-3.54-.93-10.17-4.82-11.69-11.03-2.87-16.86-14-15.54-24.72a22.38 22.38 0 0 1 12.88-17.82c1.9-.9 3.87-1.85 5.78-3.08 3.9-2.4 6.32-6.64 5.42-11.26-.34-1.77-.94-3.53-1.49-5.25-4.05-12.65 3.73-26.23 14.98-32.47a22.56 22.56 0 0 1 19.7-1.13c3.81 1.47 7.62 3.02 11.5 4.27 9.27 2.94 21.58 2.32 29.78-3.04a24.72 24.72 0 0 0 6.06-5.78c3.27-4.35 7.87-7.76 13.53-7.75 13.71.38 28.06 7.2 34.34 18.03 3.01 5.18 3.4 11.83 3.68 17.46.26 4.91 2.36 9.04 5.77 13.2 2.89 3.52 7.56 7.59 12.06 9.12 12.17 4.14 15.66 21.73 13.33 32.8-3.09 14.85-12.84 20.88-23.85 29.87-12.6 10.27-20.94 26.34-34.5 34.93-3.76 2.37-8.63 3.35-12.88 4.55"/>
  <path fill-rule="nonzero" d="M132 205.46c5.05 0 9.35 1.54 12.89 4.61a16.2 16.2 0 0 1 3.37 4.5c.37.63.75 1.3 1.18 1.93 6.48 9.6 13.04 13.38 22.58 13.03l2.23-.6c3.48-.93 7.09-1.89 9.87-3.65 7.3-4.62 12.98-11.42 18.99-18.62 4.71-5.65 9.6-11.5 15.32-16.17 1.34-1.09 2.67-2.14 3.95-3.16 9.29-7.38 16.63-13.2 19.2-25.54 2.1-10.05-.94-26.67-12-30.43-5.1-1.73-10.04-6.18-12.98-9.75-4-4.88-5.97-9.46-6.23-14.4-.26-5.22-.6-11.7-3.4-16.54-5.59-9.63-18.99-16.62-32.6-17-5.5 0-9.49 3.77-11.86 6.92a26.81 26.81 0 0 1-6.57 6.27c-9.46 6.18-22.65 6.1-31.52 3.27a161.07 161.07 0 0 1-9.36-3.42c-.75-.3-1.51-.6-2.27-.88l-.05-.02a20.49 20.49 0 0 0-17.91 1.03c-9.73 5.4-17.96 17.76-14.02 30.04l.18.56a42.54 42.54 0 0 1 1.37 4.93c1 5.15-1.5 10.4-6.35 13.38-2 1.3-4.06 2.3-6 3.21a20.36 20.36 0 0 0-11.7 16.19c-1.3 10.42 4.73 20.09 14 22.5l.23.08c5.07 1.97 6.24 9.51 6.13 13.66-.23 9.02 7.32 15.74 15.51 21.64a12.44 12.44 0 0 0 12.6 1.11c3.03-1.39 6.12-2.9 9.1-4.37l3.16-1.55.16-.07c4.69-1.8 8.96-2.7 12.8-2.7m38.79 28.2c-10.3 0-17.77-4.5-24.76-14.85-.51-.76-.93-1.49-1.33-2.19a12.72 12.72 0 0 0-2.51-3.44c-5.05-4.4-12.06-4.8-21.43-1.21l-3.06 1.5c-3.01 1.48-6.13 3-9.2 4.42a16.5 16.5 0 0 1-16.72-1.51c-9.1-6.57-17.5-14.15-17.22-25.09.09-3.3-.94-8.6-3.42-9.68a22.45 22.45 0 0 1-13.5-10.33 26.26 26.26 0 0 1-3.41-16.6 24.43 24.43 0 0 1 14.03-19.43 46.44 46.44 0 0 0 5.54-2.95l.05-.03c3.44-2.1 5.16-5.6 4.48-9.1-.29-1.46-.78-2.99-1.25-4.46l-.18-.57c-4.6-14.36 4.77-28.7 15.94-34.89A24.58 24.58 0 0 1 114.3 82l2.25.88c2.98 1.16 6.06 2.36 9.12 3.34 9.4 2.99 20.92 1.84 28.02-2.8 2-1.3 3.66-2.9 5.56-5.33 4.13-5.5 9.52-8.54 15.15-8.54h.06c15.2.42 29.7 8.08 36.06 19.05 3.3 5.7 3.67 12.74 3.96 18.4.2 4.08 1.84 7.78 5.3 12 2.46 3 6.85 7.02 11.13 8.47 13.45 4.58 17.17 23.37 14.68 35.17-2.86 13.78-11.1 20.33-20.65 27.9-1.28 1.02-2.6 2.06-3.92 3.14-5.42 4.42-10.16 10.1-14.75 15.6-5.96 7.14-12.11 14.51-19.95 19.47-3.32 2.1-7.23 3.14-11.02 4.15l-2.4.65-.22.06-.24.01c-.56.03-1.1.04-1.65.04"/>
  <path fill="#f7a116" fill-rule="nonzero" d="M187.69 150a37.6 37.6 0 1 1-75.2 0 37.6 37.6 0 0 1 75.2 0"/>
  <path fill-rule="nonzero" d="M150.08 114.45A35.59 35.59 0 0 0 114.53 150a35.59 35.59 0 0 0 35.55 35.55A35.59 35.59 0 0 0 185.63 150a35.59 35.59 0 0 0-35.55-35.55m0 75.2A39.7 39.7 0 0 1 110.42 150a39.7 39.7 0 0 1 39.66-39.66A39.7 39.7 0 0 1 189.74 150a39.7 39.7 0 0 1-39.66 39.66"/>
  <path fill="#f9bc14" fill-rule="nonzero" d="M183.86 145.17c0 16.89-15.12 30.58-33.78 30.58-18.65 0-33.78-13.7-33.78-30.58 0-16.89 15.13-30.58 33.78-30.58 18.66 0 33.78 13.69 33.78 30.58"/>
</svg>