<svg xmlns="http://www.w3.org/2000/svg" xml:space="preserve" fill-rule="evenodd" stroke-miterlimit="10" clip-rule="evenodd" viewBox="0 0 24 24">
  <path fill="none" stroke="#020202" stroke-width="1.9" d="M17.3 16.8h1.4c2 0 3.8-1.7 3.8-3.8 0-1.4-.7-2.6-1.8-3.3a3.8 3.8 0 0 0-5-5.6 3.8 3.8 0 0 0-7.2 0 3.8 3.8 0 0 0-5.1 5.6 3.8 3.8 0 0 0 1.9 7.1h1.4"/>
  <path fill="none" stroke="#020202" stroke-width="1.9" d="M14.5 10.6c1.9.6 3.1 2.3 3.2 4.3 0 2.6-2.5 4.8-5.7 4.8s-5.7-2.2-5.7-4.8c0-2 1.4-3.7 3.2-4.3"/>
  <circle cx="12" cy="9.2" r="2.9" fill="none" stroke="#020202" stroke-width="1.9"/>
  <path fill="none" stroke="#020202" stroke-width="1.9" d="M10 23.5v-3.8"/>
  <path fill="none" stroke="#020202" stroke-width="1.9" d="M14 23.5v-3.8"/>
  <path fill="none" stroke="#020202" stroke-width="1.9" d="M12 14.9V12"/>
</svg>
